<svg width="26" height="26" viewBox="0 0 26 26" fill="none" xmlns="http://www.w3.org/2000/svg">
<path d="M21.6385 5.38066C20.462 6.19966 18.8435 5.91368 18.0245 4.74368C17.1989 3.56716 17.485 1.94866 18.6614 1.1232C19.838 0.29768 21.4565 0.58366 22.282 1.76018C23.101 2.93664 22.8149 4.55514 21.6385 5.38066Z" fill="#919191"/>
<path d="M20.8454 19.4466L23.3999 7.14868H26L23.4065 19.8302C22.9255 23.0022 20.1955 25.3487 16.9844 25.3487H7.79995V22.7487H16.991C18.9149 22.7486 20.5529 21.3446 20.8454 19.4466Z" fill="#919191"/>
<path d="M7.50109 17.5487H13.845L15.1776 12.2186C13.1301 13.3757 10.9136 14.2271 8.48255 13.8047V11.0422C10.6015 11.4387 12.9546 10.6847 14.5795 9.42368L16.718 7.75966C17.0105 7.53218 17.355 7.36966 17.7125 7.26564C18.122 7.14864 18.564 7.11616 18.9995 7.18764L19.032 7.19416C20.6245 7.47368 21.6905 8.98816 21.411 10.5806L19.6495 18.2766C19.2985 20.1161 17.6929 21.4486 15.8209 21.4486H6.91597L1.95 25.3486L0 23.3986L7.50109 17.5487Z" fill="#919191"/>
</svg>
