<svg display="none" xmlns="http://www.w3.org/2000/svg">

  <symbol id="search" viewBox="0 0 34 35">
    <g>
      <path d="M12.9428 3.82892e-08C15.4187 -5.32543e-05 17.8427 0.710142 19.9272 2.04632C22.0117 3.38251 23.6691 5.28859 24.7028 7.53843C25.7366 9.78826 26.1033 12.2874 25.7593 14.7394C25.4154 17.1913 24.3754 19.4932 22.7626 21.3718L34 32.6093L32.5923 34.0169L21.3529 22.7775C19.7678 24.133 17.8785 25.0854 15.846 25.5534C13.8136 26.0215 11.6981 25.9914 9.67971 25.4657C7.66136 24.94 5.79998 23.9342 4.25408 22.5341C2.70818 21.134 1.52357 19.381 0.801143 17.4245C0.0787156 15.4679 -0.160128 13.3657 0.104955 11.2969C0.370038 9.22814 1.13119 7.25408 2.3236 5.54286C3.516 3.83165 5.10432 2.43397 6.95328 1.46887C8.80224 0.503769 10.8571 -0.000160382 12.9428 3.82892e-08ZM12.9428 1.99104C10.0384 1.99104 7.25309 3.14477 5.19943 5.19843C3.14577 7.25209 1.99204 10.0374 1.99204 12.9418C1.99204 15.8461 3.14577 18.6314 5.19943 20.6851C7.25309 22.7387 10.0384 23.8925 12.9428 23.8925C15.8471 23.8925 18.6324 22.7387 20.6861 20.6851C22.7397 18.6314 23.8935 15.8461 23.8935 12.9418C23.8935 10.0374 22.7397 7.25209 20.6861 5.19843C18.6324 3.14477 15.8471 1.99104 12.9428 1.99104Z"></path>
    </g>
  </symbol>

  <symbol id="comparison" viewBox="0 0 477.867 477.867">
    <g>
      <path d="M119.467,187.733h-102.4C7.641,187.733,0,195.374,0,204.8v256c0,9.426,7.641,17.067,17.067,17.067h102.4
			c9.426,0,17.067-7.641,17.067-17.067v-256C136.533,195.374,128.892,187.733,119.467,187.733z M102.4,443.733H34.133V221.867H102.4
			V443.733z"/>
    </g>
    <g>
		<path d="M290.133,0h-102.4c-9.426,0-17.067,7.641-17.067,17.067V460.8c0,9.426,7.641,17.067,17.067,17.067h102.4
			c9.426,0,17.067-7.641,17.067-17.067V17.067C307.2,7.641,299.559,0,290.133,0z M273.067,443.733H204.8v-409.6h68.267V443.733z"/>
	</g>
  <g>
		<path d="M460.8,136.533H358.4c-9.426,0-17.067,7.641-17.067,17.067v307.2c0,9.426,7.641,17.067,17.067,17.067h102.4
			c9.426,0,17.067-7.641,17.067-17.067V153.6C477.867,144.174,470.226,136.533,460.8,136.533z M443.733,443.733h-68.267V170.667
			h68.267V443.733z"/>
	</g>
  </symbol>

  <symbol id="scroll-down" viewBox="0 0 23 50">
    <g>
      <path d="M12.3846 0L12.3846 45.5812L21.6731 34.8321L23 36.1916L11.5 49.5L0 36.1916L1.32692 34.8321L10.6154 45.5812L10.6154 0L12.3846 0Z"/>
    </g>
  </symbol>

  <symbol id="facebook" viewBox="0 0 34 34">
    <g>
      <path d="M31.1666 0H2.83336C1.24664 0 0 1.24664 0 2.83336V31.1667C0 32.7534 1.24664 34 2.83336 34H15.8667H22.6667H31.1667C32.7534 34 34 32.7534 34 31.1666V2.83336C34 1.24664 32.7534 0 31.1666 0ZM17 32.8666V21.5334H12.4666V17H17V13.0334C17 9.80336 19.4934 7.08336 22.6666 6.8H27.7666V11.3334H23.2333C22.2699 11.3334 21.5333 12.07 21.5333 13.0334V17H27.2V21.5334H21.5334V32.8667H17V32.8666ZM32.8666 31.1666C32.8666 32.13 32.13 32.8666 31.1666 32.8666H22.6666V22.6666H28.3333V15.8666H22.6666V13.0333C22.6666 12.6933 22.8933 12.4666 23.2333 12.4666H28.9V5.66664H22.61C18.8134 6.00664 15.8666 9.23664 15.8666 13.0333V15.8666H11.3333V22.6666H15.8666V32.8666H2.83336C1.87 32.8666 1.13336 32.13 1.13336 31.1666V2.83336C1.13336 1.87 1.87 1.13336 2.83336 1.13336H31.1667C32.1301 1.13336 32.8667 1.87 32.8667 2.83336V31.1666H32.8666Z"/>
    </g>
  </symbol>

  <symbol id="instagram" viewBox="0 0 368 368">
    <g>
      <path d="M312,0H56C25.12,0,0,25.12,0,56v256c0,30.88,25.128,56,56,56v-0.728C62.536,368,74.416,368,96,368h216
			c30.88,0,56-25.128,56-56V56C368,25.12,342.872,0,312,0z M352,312c0,22.056-17.944,40-40,40c0,0-254.232,0-256,0
			c-22.056,0-40-17.944-40-40V56c0-22.056,17.944-40,40-40h256c22.056,0,40,17.944,40,40V312z"/>
    </g>
    <g>
		<path d="M184,64c-66.168,0-120,53.832-120,120s53.832,120,120,120s120-53.832,120-120S250.168,64,184,64z M184,288
			c-57.344,0-104-46.656-104-104S126.656,80,184,80s104,46.656,104,104S241.344,288,184,288z"/>
	</g>
  <g>
		<path d="M183.624,111.624c-39.904,0-72.376,32.472-72.376,72.376s32.472,72.376,72.376,72.376
			C223.528,256.376,256,223.904,256,184S223.528,111.624,183.624,111.624z M183.624,240.376c-31.088,0-56.376-25.288-56.376-56.376
			s25.288-56.376,56.376-56.376S240,152.912,240,184S214.712,240.376,183.624,240.376z"/>
	</g>
  <g>
		<circle cx="304" cy="64" r="16"/>
	</g>
  </symbol>

  <symbol id="youtube" viewBox="0 0 368 368">
    <g>
      <path d="m328 0h-288c-22.054688 0-40 17.945312-40 40v288c0 22.054688 17.945312 40 40 40h288c22.054688 0 40-17.945312 40-40v-288c0-22.054688-17.945312-40-40-40zm24 328c0 13.230469-10.769531 24-24 24h-288c-13.230469 0-24-10.769531-24-24v-288c0-13.230469 10.769531-24 24-24h288c13.230469 0 24 10.769531 24 24zm0 0"/><path d="m284.296875 177.246094-176-112c-2.480469-1.574219-5.578125-1.660156-8.152344-.261719-2.550781 1.40625-4.144531 4.09375-4.144531 7.015625v224c0 2.921875 1.59375 5.609375 4.152344 7.007812 1.199218.664063 2.527344.992188 3.847656.992188 1.496094 0 2.984375-.414062 4.296875-1.246094l176-112c2.304687-1.472656 3.703125-4.019531 3.703125-6.753906s-1.398438-5.28125-3.703125-6.753906zm-172.296875 104.179687v-194.851562l153.105469 97.425781zm0 0"/>
    </g>
  </symbol>

  <symbol id="speed" viewBox="0 0 28 22">
    <g>
      <path d="M25.1732 6.42665L23.5332 8.89332C24.3241 10.4708 24.7113 12.2198 24.6601 13.9836C24.6089 15.7475 24.1209 17.4711 23.2398 19H4.75982C3.61471 17.0135 3.14022 14.7108 3.40668 12.4334C3.67314 10.156 4.66637 8.02509 6.23913 6.35656C7.81189 4.68803 9.88044 3.57071 12.1381 3.17025C14.3958 2.76979 16.7225 3.1075 18.7732 4.13332L21.2398 2.49332C18.7285 0.882944 15.7496 0.161329 12.7797 0.443904C9.80976 0.726479 7.02042 1.99692 4.85781 4.052C2.69521 6.10709 1.28431 8.82808 0.850779 11.7797C0.417254 14.7314 0.986157 17.7432 2.46649 20.3333C2.69917 20.7364 3.03327 21.0715 3.4356 21.3054C3.83792 21.5393 4.29445 21.6638 4.75982 21.6667H23.2265C23.6964 21.6685 24.1584 21.5462 24.5658 21.312C24.9732 21.0779 25.3115 20.7403 25.5465 20.3333C26.775 18.2052 27.3915 15.779 27.328 13.3226C27.2645 10.8662 26.5233 8.47508 25.1865 6.41332L25.1732 6.42665ZM12.1198 15.5467C12.3675 15.7946 12.6616 15.9913 12.9853 16.1255C13.309 16.2597 13.656 16.3288 14.0065 16.3288C14.3569 16.3288 14.7039 16.2597 15.0277 16.1255C15.3514 15.9913 15.6455 15.7946 15.8932 15.5467L23.4398 4.22666L12.1198 11.7733C11.8719 12.021 11.6752 12.3151 11.541 12.6388C11.4068 12.9625 11.3377 13.3095 11.3377 13.66C11.3377 14.0104 11.4068 14.3574 11.541 14.6812C11.6752 15.0049 11.8719 15.299 12.1198 15.5467Z"/>
    </g>
  </symbol>

  <symbol id="seats" viewBox="0 0 26 26">
    <g>
      <path d="M21.6385 5.38066C20.462 6.19966 18.8435 5.91368 18.0245 4.74368C17.1989 3.56716 17.485 1.94866 18.6614 1.1232C19.838 0.29768 21.4565 0.58366 22.282 1.76018C23.101 2.93664 22.8149 4.55514 21.6385 5.38066Z"/>
      <path d="M20.8454 19.4466L23.3999 7.14868H26L23.4065 19.8302C22.9255 23.0022 20.1955 25.3487 16.9844 25.3487H7.79995V22.7487H16.991C18.9149 22.7486 20.5529 21.3446 20.8454 19.4466Z"/>
      <path d="M7.50109 17.5487H13.845L15.1776 12.2186C13.1301 13.3757 10.9136 14.2271 8.48255 13.8047V11.0422C10.6015 11.4387 12.9546 10.6847 14.5795 9.42368L16.718 7.75966C17.0105 7.53218 17.355 7.36966 17.7125 7.26564C18.122 7.14864 18.564 7.11616 18.9995 7.18764L19.032 7.19416C20.6245 7.47368 21.6905 8.98816 21.411 10.5806L19.6495 18.2766C19.2985 20.1161 17.6929 21.4486 15.8209 21.4486H6.91597L1.95 25.3486L0 23.3986L7.50109 17.5487Z"/>
    </g>
  </symbol>

  <symbol id="track" viewBox="0 0 32 24">
    <g>
      <path d="M5.38893 0.840118C2.4175 0.840118 0 3.25761 0 6.22898C0 7.70098 0.802936 9.62423 2.38643 11.9453C3.51931 13.6058 4.63755 14.8615 4.68455 14.9142C4.8638 15.1147 5.11999 15.2293 5.38893 15.2293C5.65786 15.2293 5.91405 15.1147 6.0933 14.9142C6.14036 14.8615 7.25855 13.6058 8.39142 11.9453C9.97498 9.62429 10.7779 7.70098 10.7779 6.22898C10.7779 3.25761 8.36036 0.840118 5.38893 0.840118ZM5.38893 8.7336C4.00793 8.7336 2.88437 7.61004 2.88437 6.22905C2.88437 4.84799 4.00793 3.72449 5.38893 3.72449C6.76999 3.72449 7.89348 4.84805 7.89348 6.22905C7.89355 7.61004 6.76992 8.7336 5.38893 8.7336Z"/>
      <path d="M5.38893 5.61386C5.04974 5.61386 4.77368 5.88986 4.77368 6.22911C4.77368 6.56836 5.04968 6.84436 5.38893 6.84436C5.72818 6.84436 6.00418 6.56836 6.00418 6.22911C6.00418 5.88986 5.72812 5.61386 5.38893 5.61386Z"/>
      <path d="M22.276 21.2704H19.9251C18.2596 21.2704 16.9045 19.9154 16.9045 18.2499C16.9045 15.5425 14.7019 13.3399 11.9946 13.3399H9.72375C9.20194 14.0835 8.69457 14.7374 8.29663 15.2293H11.9947C13.6602 15.2293 15.0152 16.5843 15.0152 18.2499C15.0152 20.9572 17.2179 23.1598 19.9252 23.1598H23.7031C23.3051 22.6679 22.7977 22.0139 22.276 21.2704Z"/>
      <path d="M26.611 8.77066C23.6396 8.77066 21.2222 11.1882 21.2222 14.1595C21.2222 15.6316 22.0251 17.5548 23.6086 19.8759C24.7415 21.5363 25.8597 22.7921 25.9067 22.8447C26.086 23.0452 26.3421 23.1598 26.6111 23.1598C26.8801 23.1598 27.1362 23.0452 27.3155 22.8447C27.3626 22.7921 28.4808 21.5364 29.6136 19.8759C31.1971 17.5549 32 15.6316 32 14.1595C32 11.1881 29.5825 8.77066 26.611 8.77066ZM26.611 16.6641C25.23 16.6641 24.1065 15.5406 24.1065 14.1596C24.1065 12.7785 25.23 11.655 26.611 11.655C27.992 11.655 29.1156 12.7786 29.1156 14.1596C29.1156 15.5406 27.9921 16.6641 26.611 16.6641Z"/>
      <path d="M26.6111 13.5443C26.2718 13.5443 25.9958 13.8203 25.9958 14.1596C25.9958 14.4988 26.2718 14.7748 26.6111 14.7748C26.9503 14.7748 27.2263 14.4988 27.2263 14.1596C27.2263 13.8203 26.9503 13.5443 26.6111 13.5443Z"/>
    </g>
  </symbol>
</svg>