<svg display="none" xmlns="http://www.w3.org/2000/svg">

  <symbol id="search" viewBox="0 0 34 35">
    <g>
      <path d="M12.9428 3.82892e-08C15.4187 -5.32543e-05 17.8427 0.710142 19.9272 2.04632C22.0117 3.38251 23.6691 5.28859 24.7028 7.53843C25.7366 9.78826 26.1033 12.2874 25.7593 14.7394C25.4154 17.1913 24.3754 19.4932 22.7626 21.3718L34 32.6093L32.5923 34.0169L21.3529 22.7775C19.7678 24.133 17.8785 25.0854 15.846 25.5534C13.8136 26.0215 11.6981 25.9914 9.67971 25.4657C7.66136 24.94 5.79998 23.9342 4.25408 22.5341C2.70818 21.134 1.52357 19.381 0.801143 17.4245C0.0787156 15.4679 -0.160128 13.3657 0.104955 11.2969C0.370038 9.22814 1.13119 7.25408 2.3236 5.54286C3.516 3.83165 5.10432 2.43397 6.95328 1.46887C8.80224 0.503769 10.8571 -0.000160382 12.9428 3.82892e-08ZM12.9428 1.99104C10.0384 1.99104 7.25309 3.14477 5.19943 5.19843C3.14577 7.25209 1.99204 10.0374 1.99204 12.9418C1.99204 15.8461 3.14577 18.6314 5.19943 20.6851C7.25309 22.7387 10.0384 23.8925 12.9428 23.8925C15.8471 23.8925 18.6324 22.7387 20.6861 20.6851C22.7397 18.6314 23.8935 15.8461 23.8935 12.9418C23.8935 10.0374 22.7397 7.25209 20.6861 5.19843C18.6324 3.14477 15.8471 1.99104 12.9428 1.99104Z"></path>
    </g>
  </symbol>

  <symbol id="comparison" viewBox="0 0 477.867 477.867">
    <g>
      <path d="M119.467,187.733h-102.4C7.641,187.733,0,195.374,0,204.8v256c0,9.426,7.641,17.067,17.067,17.067h102.4
			c9.426,0,17.067-7.641,17.067-17.067v-256C136.533,195.374,128.892,187.733,119.467,187.733z M102.4,443.733H34.133V221.867H102.4
			V443.733z"/>
    </g>
    <g>
		<path d="M290.133,0h-102.4c-9.426,0-17.067,7.641-17.067,17.067V460.8c0,9.426,7.641,17.067,17.067,17.067h102.4
			c9.426,0,17.067-7.641,17.067-17.067V17.067C307.2,7.641,299.559,0,290.133,0z M273.067,443.733H204.8v-409.6h68.267V443.733z"/>
	</g>
  <g>
		<path d="M460.8,136.533H358.4c-9.426,0-17.067,7.641-17.067,17.067v307.2c0,9.426,7.641,17.067,17.067,17.067h102.4
			c9.426,0,17.067-7.641,17.067-17.067V153.6C477.867,144.174,470.226,136.533,460.8,136.533z M443.733,443.733h-68.267V170.667
			h68.267V443.733z"/>
	</g>
  </symbol>

  <symbol id="scroll-down" viewBox="0 0 23 50">
    <g>
      <path d="M12.3846 0L12.3846 45.5812L21.6731 34.8321L23 36.1916L11.5 49.5L0 36.1916L1.32692 34.8321L10.6154 45.5812L10.6154 0L12.3846 0Z"/>
    </g>
  </symbol>

  <symbol id="facebook" viewBox="0 0 34 34">
    <g>
      <path d="M31.1666 0H2.83336C1.24664 0 0 1.24664 0 2.83336V31.1667C0 32.7534 1.24664 34 2.83336 34H15.8667H22.6667H31.1667C32.7534 34 34 32.7534 34 31.1666V2.83336C34 1.24664 32.7534 0 31.1666 0ZM17 32.8666V21.5334H12.4666V17H17V13.0334C17 9.80336 19.4934 7.08336 22.6666 6.8H27.7666V11.3334H23.2333C22.2699 11.3334 21.5333 12.07 21.5333 13.0334V17H27.2V21.5334H21.5334V32.8667H17V32.8666ZM32.8666 31.1666C32.8666 32.13 32.13 32.8666 31.1666 32.8666H22.6666V22.6666H28.3333V15.8666H22.6666V13.0333C22.6666 12.6933 22.8933 12.4666 23.2333 12.4666H28.9V5.66664H22.61C18.8134 6.00664 15.8666 9.23664 15.8666 13.0333V15.8666H11.3333V22.6666H15.8666V32.8666H2.83336C1.87 32.8666 1.13336 32.13 1.13336 31.1666V2.83336C1.13336 1.87 1.87 1.13336 2.83336 1.13336H31.1667C32.1301 1.13336 32.8667 1.87 32.8667 2.83336V31.1666H32.8666Z"/>
    </g>
  </symbol>

  <symbol id="instagram" viewBox="0 0 368 368">
    <g>
      <path d="M312,0H56C25.12,0,0,25.12,0,56v256c0,30.88,25.128,56,56,56v-0.728C62.536,368,74.416,368,96,368h216
			c30.88,0,56-25.128,56-56V56C368,25.12,342.872,0,312,0z M352,312c0,22.056-17.944,40-40,40c0,0-254.232,0-256,0
			c-22.056,0-40-17.944-40-40V56c0-22.056,17.944-40,40-40h256c22.056,0,40,17.944,40,40V312z"/>
    </g>
    <g>
		<path d="M184,64c-66.168,0-120,53.832-120,120s53.832,120,120,120s120-53.832,120-120S250.168,64,184,64z M184,288
			c-57.344,0-104-46.656-104-104S126.656,80,184,80s104,46.656,104,104S241.344,288,184,288z"/>
	</g>
  <g>
		<path d="M183.624,111.624c-39.904,0-72.376,32.472-72.376,72.376s32.472,72.376,72.376,72.376
			C223.528,256.376,256,223.904,256,184S223.528,111.624,183.624,111.624z M183.624,240.376c-31.088,0-56.376-25.288-56.376-56.376
			s25.288-56.376,56.376-56.376S240,152.912,240,184S214.712,240.376,183.624,240.376z"/>
	</g>
  <g>
		<circle cx="304" cy="64" r="16"/>
	</g>
  </symbol>

  <symbol id="youtube" viewBox="0 0 368 368">
    <g>
      <path d="m328 0h-288c-22.054688 0-40 17.945312-40 40v288c0 22.054688 17.945312 40 40 40h288c22.054688 0 40-17.945312 40-40v-288c0-22.054688-17.945312-40-40-40zm24 328c0 13.230469-10.769531 24-24 24h-288c-13.230469 0-24-10.769531-24-24v-288c0-13.230469 10.769531-24 24-24h288c13.230469 0 24 10.769531 24 24zm0 0"/><path d="m284.296875 177.246094-176-112c-2.480469-1.574219-5.578125-1.660156-8.152344-.261719-2.550781 1.40625-4.144531 4.09375-4.144531 7.015625v224c0 2.921875 1.59375 5.609375 4.152344 7.007812 1.199218.664063 2.527344.992188 3.847656.992188 1.496094 0 2.984375-.414062 4.296875-1.246094l176-112c2.304687-1.472656 3.703125-4.019531 3.703125-6.753906s-1.398438-5.28125-3.703125-6.753906zm-172.296875 104.179687v-194.851562l153.105469 97.425781zm0 0"/>
    </g>
  </symbol>
</svg>