<svg width="32" height="24" viewBox="0 0 32 24" fill="none" xmlns="http://www.w3.org/2000/svg">
<path d="M5.38893 0.840118C2.4175 0.840118 0 3.25761 0 6.22898C0 7.70098 0.802936 9.62423 2.38643 11.9453C3.51931 13.6058 4.63755 14.8615 4.68455 14.9142C4.8638 15.1147 5.11999 15.2293 5.38893 15.2293C5.65786 15.2293 5.91405 15.1147 6.0933 14.9142C6.14036 14.8615 7.25855 13.6058 8.39142 11.9453C9.97498 9.62429 10.7779 7.70098 10.7779 6.22898C10.7779 3.25761 8.36036 0.840118 5.38893 0.840118ZM5.38893 8.7336C4.00793 8.7336 2.88437 7.61004 2.88437 6.22905C2.88437 4.84799 4.00793 3.72449 5.38893 3.72449C6.76999 3.72449 7.89348 4.84805 7.89348 6.22905C7.89355 7.61004 6.76992 8.7336 5.38893 8.7336Z" fill="#919191"/>
<path d="M5.38893 5.61386C5.04974 5.61386 4.77368 5.88986 4.77368 6.22911C4.77368 6.56836 5.04968 6.84436 5.38893 6.84436C5.72818 6.84436 6.00418 6.56836 6.00418 6.22911C6.00418 5.88986 5.72812 5.61386 5.38893 5.61386Z" fill="#919191"/>
<path d="M22.276 21.2704H19.9251C18.2596 21.2704 16.9045 19.9154 16.9045 18.2499C16.9045 15.5425 14.7019 13.3399 11.9946 13.3399H9.72375C9.20194 14.0835 8.69457 14.7374 8.29663 15.2293H11.9947C13.6602 15.2293 15.0152 16.5843 15.0152 18.2499C15.0152 20.9572 17.2179 23.1598 19.9252 23.1598H23.7031C23.3051 22.6679 22.7977 22.0139 22.276 21.2704Z" fill="#919191"/>
<path d="M26.611 8.77066C23.6396 8.77066 21.2222 11.1882 21.2222 14.1595C21.2222 15.6316 22.0251 17.5548 23.6086 19.8759C24.7415 21.5363 25.8597 22.7921 25.9067 22.8447C26.086 23.0452 26.3421 23.1598 26.6111 23.1598C26.8801 23.1598 27.1362 23.0452 27.3155 22.8447C27.3626 22.7921 28.4808 21.5364 29.6136 19.8759C31.1971 17.5549 32 15.6316 32 14.1595C32 11.1881 29.5825 8.77066 26.611 8.77066ZM26.611 16.6641C25.23 16.6641 24.1065 15.5406 24.1065 14.1596C24.1065 12.7785 25.23 11.655 26.611 11.655C27.992 11.655 29.1156 12.7786 29.1156 14.1596C29.1156 15.5406 27.9921 16.6641 26.611 16.6641Z" fill="#919191"/>
<path d="M26.6111 13.5443C26.2718 13.5443 25.9958 13.8203 25.9958 14.1596C25.9958 14.4988 26.2718 14.7748 26.6111 14.7748C26.9503 14.7748 27.2263 14.4988 27.2263 14.1596C27.2263 13.8203 26.9503 13.5443 26.6111 13.5443Z" fill="#919191"/>
</svg>
