<svg height="368pt" viewBox="0 0 368 368" width="368pt" xmlns="http://www.w3.org/2000/svg"><path d="m328 0h-288c-22.054688 0-40 17.945312-40 40v288c0 22.054688 17.945312 40 40 40h288c22.054688 0 40-17.945312 40-40v-288c0-22.054688-17.945312-40-40-40zm24 328c0 13.230469-10.769531 24-24 24h-288c-13.230469 0-24-10.769531-24-24v-288c0-13.230469 10.769531-24 24-24h288c13.230469 0 24 10.769531 24 24zm0 0"/><path d="m284.296875 177.246094-176-112c-2.480469-1.574219-5.578125-1.660156-8.152344-.261719-2.550781 1.40625-4.144531 4.09375-4.144531 7.015625v224c0 2.921875 1.59375 5.609375 4.152344 7.007812 1.199218.664063 2.527344.992188 3.847656.992188 1.496094 0 2.984375-.414062 4.296875-1.246094l176-112c2.304687-1.472656 3.703125-4.019531 3.703125-6.753906s-1.398438-5.28125-3.703125-6.753906zm-172.296875 104.179687v-194.851562l153.105469 97.425781zm0 0"/></svg>